# xmcd
#
# Track frame offsets:
#	150
#	9913
#	27006
#	42858
#	56175
#	72445
#	84800
#	104496
#	119721
#	133540
#	158044
#	171012
#	180595
#	195542
#	215254
#	234143
#	246289
#	263352
#
# Disc length: 3744 seconds
#
# Revision: 0
# Processed by: cddbd v1.4PL0 Copyright (c) Steve Scherf et al.
# Submitted via: dBpowerAMP V4.0
#
DISCID=e40e9e12
DTITLE=o som dos bailes - o som dos bailes - vol 02
DYEAR=2003
DGENRE=bandinhas
TTITLE0=babalu - banda real pr
TTITLE1=namorada virtual - banda bilha som
TTITLE2=minha rainha - rainha musical
TTITLE3=bonde do alemao - banda 2001
TTITLE4=um momento a mais - orquestra la montanara 
TTITLE5=bate na madeira - grupo musical imagem
TTITLE6=tigrao do bairro - alma nova
TTITLE7=quero o teu amor - barbarela
TTITLE8=jaqueline - tropical bross
TTITLE9=pout-pou nossa historia - grupo hello
TTITLE10=vou te buscar maria - banda amazonia
TTITLE11=viuva negra - banda real pr 
TTITLE12=menina morena - sax cia manchester
TTITLE13=na hora do sim - banda brilha som
TTITLE14=linda cigana - clau e roger
TTITLE15=ela tem o selo la - banda amil
TTITLE16=cala boca e me beija - banda porto do som
TTITLE17=ausencia - barbarella
EXTD=só bandinhas - dhaigoroz
EXTT0=
EXTT1=
EXTT2=
EXTT3=
EXTT4=
EXTT5=
EXTT6=
EXTT7=
EXTT8=
EXTT9=
EXTT10=
EXTT11=
EXTT12=
EXTT13=
EXTT14=
EXTT15=
EXTT16=
EXTT17=
PLAYORDER=
